<svg xmlns="http://www.w3.org/2000/svg" width="150.617" height="144.959" viewBox="0 0 150.617 144.959"><g transform="matrix(0.788, -0.616, 0.616, 0.788, 0, 49.275)" opacity="0.07"><g transform="translate(2.017 21.621)"><g transform="translate(0)"><path d="M159.048,108.882a4.8,4.8,0,0,0-4.241-2.546H141.16a13.69,13.69,0,0,0-26.956,0H100.377a10.57,10.57,0,1,0-17.705,0H71.4a4.8,4.8,0,0,0-3.987,7.486l32.238,47.94v27.214a2.4,2.4,0,0,0,3.362,2.2l22.1-9.625a2.4,2.4,0,0,0,1.443-2.2v-17.59l32.238-47.94A4.8,4.8,0,0,0,159.048,108.882ZM127.682,99.85a8.9,8.9,0,0,1,8.556,6.486H119.126A8.9,8.9,0,0,1,127.682,99.85ZM91.525,94.8a5.766,5.766,0,1,1-5.766,5.766A5.772,5.772,0,0,1,91.525,94.8Zm30.636,64.884a2.4,2.4,0,0,0-.409,1.341v16.749l-17.3,7.532V163.431h8.679a2.4,2.4,0,0,0,0-4.8h-9.8L79.154,122.672h48.528a2.4,2.4,0,0,0,0-4.8H75.923L71.4,111.141h83.408Z" transform="translate(-66.593 -90)" fill="#707070"/></g></g><g transform="translate(46.155)"><path d="M260.894,0a10.57,10.57,0,1,0,10.57,10.57A10.582,10.582,0,0,0,260.894,0Zm0,16.336a5.766,5.766,0,1,1,5.766-5.766A5.772,5.772,0,0,1,260.894,16.336Z" transform="translate(-250.324)" fill="#707070"/></g><g transform="translate(79.998 11.611)"><path d="M393.6,48.333a2.4,2.4,0,0,0-2.4,2.4V64.389a2.4,2.4,0,1,0,4.8,0V50.735A2.4,2.4,0,0,0,393.6,48.333Z" transform="translate(-391.197 -48.333)" fill="#707070"/></g><g transform="translate(79.998 3.724)"><path d="M395.3,16.2a2.4,2.4,0,1,0,.7,1.7A2.421,2.421,0,0,0,395.3,16.2Z" transform="translate(-391.197 -15.5)" fill="#707070"/></g><g transform="translate(32.715 3.064)"><path d="M196.777,12.755a2.4,2.4,0,0,0-2.4,2.4v9.85a2.4,2.4,0,0,0,4.8,0v-9.85A2.4,2.4,0,0,0,196.777,12.755Z" transform="translate(-194.375 -12.755)" fill="#707070"/></g><g transform="translate(0)"><path d="M60.6,0a2.4,2.4,0,0,0-2.4,2.4V18.058a2.4,2.4,0,0,0,4.8,0V2.4A2.4,2.4,0,0,0,60.6,0Z" transform="translate(-58.197 0)" fill="#707070"/></g><g transform="translate(0 24.665)"><path d="M62.3,103.374a2.4,2.4,0,1,0,.7,1.7A2.41,2.41,0,0,0,62.3,103.374Z" transform="translate(-58.197 -102.67)" fill="#707070"/></g><g transform="translate(71.386 49.488)"><g transform="translate(0)"><path d="M359.447,206.7a2.4,2.4,0,1,0,.7,1.7A2.419,2.419,0,0,0,359.447,206.7Z" transform="translate(-355.347 -206)" fill="#707070"/></g></g></g></svg>