<?xml version="1.0" encoding="utf-8"?><svg xml:space="preserve" viewBox="0 0 100 100" y="0" x="0" xmlns="http://www.w3.org/2000/svg" id="圖層_1" version="1.1" width="200px" height="200px" xmlns:xlink="http://www.w3.org/1999/xlink" style="width:100%;height:100%;background-size:initial;background-repeat-y:initial;background-repeat-x:initial;background-position-y:initial;background-position-x:initial;background-origin:initial;background-image:initial;background-color:rgb(255, 255, 255);background-clip:initial;background-attachment:initial;animation-play-state:paused" ><g class="ldl-scale" style="transform-origin:50% 50%;transform:rotate(0deg) scale(0.8, 0.8);animation-play-state:paused" ><path d="M56.5 10.5c-8.1-1.2-16.1 0-23.3 3.5l-5.5-9.8-6.4 22.6 22.6 6.4-5.4-9.6c5.1-2.4 10.7-3.2 16.3-2.3 15.6 2.4 26.4 17.1 24 32.7S61.7 80.4 46.1 78c-6.4-1-12.1-4-16.5-8.7l-7.9 7.5c6.1 6.5 14 10.6 22.8 12C66 92.1 86.3 77.3 89.6 55.7c3.3-21.6-11.5-41.9-33.1-45.2z" style="animation-play-state:paused" ></path>
<metadata xmlns:d="https://loading.io/stock/" style="animation-play-state:paused" ><d:name style="animation-play-state:paused" >reload</d:name>


<d:tags style="animation-play-state:paused" >refresh,sync,undo,arrow,reload,web application</d:tags>


<d:license style="animation-play-state:paused" >by</d:license>


<d:slug style="animation-play-state:paused" >fgyniv</d:slug></metadata></g><!-- generated by https://loading.io/ --></svg>