<svg xmlns="http://www.w3.org/2000/svg" viewBox="0 0 1021.24 280.45"><defs><style>.cls-1{fill:#4e897b;}</style></defs><g id="Layer_2" data-name="Layer 2"><g id="Capa_1" data-name="Capa 1"><path d="M446.91,20.24h80.56V38H498.2v92h-22V38H446.91Z"/><path d="M562.4,130.07h-22V42.9h22V56.43c5.51-9,14.64-14.79,26.75-14.79V64.77h-5.82c-13.06,0-20.93,5-20.93,21.87Z"/><path d="M683.09,130.07H660.9v-11c-5.5,7.39-15.1,12.11-26,12.11C614.64,131.17,600,118,600,94V42.9h22v48c0,14,7.71,21.56,19.35,21.56,12,0,19.51-7.56,19.51-21.56v-48h22.19Z"/><path d="M735,131.49c-21.87,0-37.14-12.75-38.08-29h22.19c.78,6.61,6.92,11.65,15.73,11.65,8.66,0,13.38-3.94,13.38-9,0-15.58-49.25-5.67-49.25-37.61,0-14.47,12.9-26.12,34.46-26.12,21.08,0,33.83,11.49,35.08,28.8H747.45c-.63-6.77-6-11.33-14.63-11.33-8.19,0-12.43,3.3-12.43,8.34,0,15.89,48.3,6,48.93,37.92C769.32,120.16,756.26,131.49,735,131.49Z"/><path d="M787.73,61H777.35V42.9h10.38V21.34h22.19V42.9h19.51V61H809.92v42.17c0,5.83,2.36,8.34,9.28,8.34h10.23v18.57H815.58c-16.67,0-27.85-7.08-27.85-27.06Z"/><path d="M880.25,131.49c-25.33,0-43.74-17.63-43.74-45,0-27.53,17.94-45,43.74-45,25.18,0,43,17.15,43,43.12a51.63,51.63,0,0,1-.63,8.49H858.86c1.1,12.91,9.91,20.14,20.92,20.14,9.44,0,14.64-4.72,17.47-10.54H921C916.29,118.74,901.81,131.49,880.25,131.49ZM859,78.3H900.4c-.32-11.48-9.45-18.72-20.77-18.72C869.08,59.58,860.74,66.34,859,78.3Z"/><path d="M970.42,41.48c11.48,0,22.5,5.35,28.48,13.53V13.63h22.34V130.07H998.9v-12.9c-5.19,8-14.95,14.32-28.64,14.32-22.19,0-39.81-18.1-39.81-45.32S948.07,41.48,970.42,41.48Zm5.5,19.36c-11.8,0-23,8.81-23,25.33s11.17,26,23,26c12.12,0,23.14-9.12,23.14-25.65S988,60.84,975.92,60.84Z"/><path d="M493.17,236.87H474.76V279h-22V169.21h40.44c26.43,0,39.65,14.94,39.65,34C532.82,219.87,521.49,236.87,493.17,236.87Zm-.95-17.79c12.43,0,17.94-6.13,17.94-15.89,0-10.07-5.51-16.05-17.94-16.05H474.76v31.94Z"/><path d="M579.4,190.45c14,0,23.6,6.61,28.79,13.84V191.86h22.19V279H608.19V266.29c-5.19,7.55-15.11,14.16-29,14.16-22,0-39.65-18.09-39.65-45.32S557.21,190.45,579.4,190.45Zm5.66,19.35c-11.8,0-23,8.81-23,25.33s11.17,26,23,26c12.12,0,23.13-9.13,23.13-25.65S597.18,209.8,585.06,209.8Z"/><path d="M670.82,279h-22V191.86h22V205.4c5.51-9,14.63-14.79,26.75-14.79v23.13h-5.82c-13.06,0-20.93,5-20.93,21.87Z"/><path d="M712.67,210H702.29v-18.1h10.38V170.31h22.19v21.55h19.51V210H734.86v42.17c0,5.82,2.36,8.34,9.28,8.34h10.23V279H740.52c-16.67,0-27.85-7.09-27.85-27.07Z"/><path d="M828.17,230.89c0-14-7.71-21.56-19.36-21.56-11.95,0-19.66,7.55-19.66,21.56V279h-22V191.86h22v10.86c5.66-7.39,15.1-12.11,26.27-12.11,20.3,0,34.78,13.21,34.78,37.29V279h-22Z"/><path d="M906.06,280.45c-25.33,0-43.74-17.62-43.74-45,0-27.54,17.93-45,43.74-45,25.17,0,43,17.15,43,43.11a51.74,51.74,0,0,1-.62,8.5H884.66c1.1,12.9,9.91,20.14,20.93,20.14,9.44,0,14.63-4.72,17.46-10.54h23.76C942.09,267.71,927.62,280.45,906.06,280.45Zm-21.24-53.18H926.2c-.32-11.49-9.44-18.73-20.77-18.73C894.89,208.54,886.55,215.31,884.82,227.27Z"/><path d="M984,279h-22V191.86h22V205.4c5.51-9,14.63-14.79,26.75-14.79v23.13h-5.82c-13.06,0-20.93,5-20.93,21.87Z"/><polygon class="cls-1" points="290.04 0 118.86 171.14 52.32 104.62 0 156.94 118.86 275.79 342.36 52.32 290.04 0"/></g></g></svg>