<svg xmlns="http://www.w3.org/2000/svg" width="30.553" height="30.553" viewBox="0 0 39.553 39.553">
  <g id="Group_266" data-name="Group 266" transform="translate(0 0)">
    <path id="Path_538" data-name="Path 538" d="M216.012,405.053a19.777,19.777,0,1,1,19.777-19.777A19.777,19.777,0,0,1,216.012,405.053Zm0-38.612a18.835,18.835,0,1,0,18.835,18.835A18.835,18.835,0,0,0,216.012,366.442Z" transform="translate(-196.235 -365.5)" fill="#494949"/>
    <path id="Path_571" data-name="Path 571" d="M236.634,393.14a12.928,12.928,0,1,0-14.948,12.772v-9.034H218.4V393.14h3.283v-2.849c0-3.24,1.931-5.031,4.883-5.031a19.866,19.866,0,0,1,2.894.253v3.182h-1.631a1.869,1.869,0,0,0-2.107,2.02v2.425h3.585l-.573,3.738h-3.013v9.034a12.932,12.932,0,0,0,10.909-12.773Z" transform="translate(-203.929 -373.285)" fill="#494949" fill-rule="evenodd"/>
  </g>
</svg>
