<svg xmlns="http://www.w3.org/2000/svg" width="30.553" height="30.553" viewBox="0 0 39.553 39.553">
  <g id="Group_267" data-name="Group 267" transform="translate(0 0)">
    <path id="Path_573" data-name="Path 573" d="M216.012,405.053a19.777,19.777,0,1,1,19.777-19.777A19.777,19.777,0,0,1,216.012,405.053Zm0-38.612a18.835,18.835,0,1,0,18.835,18.835A18.835,18.835,0,0,0,216.012,366.442Z" transform="translate(-196.235 -365.5)" fill="#494949"/>
    <path id="Subtraction_1" data-name="Subtraction 1" d="M13,26A13,13,0,0,1,7.94,1.022,13,13,0,0,1,18.06,24.978,12.918,12.918,0,0,1,13,26Zm.068-19.055a6.987,6.987,0,1,0,6.847,8.384h0V12.534h-6.85v2.795h3.954a4.2,4.2,0,1,1-.458-3.712l2.29-1.6a6.971,6.971,0,0,0-5.781-3.069Z" transform="translate(6.777 6.777)" fill="#494949"/>
  </g>
</svg>
