<svg width="200" height="29" viewBox="0 0 200 29" fill="none" xmlns="http://www.w3.org/2000/svg">
<path d="M23.6725 27.168C23.6725 27.7279 23.4022 28.0078 22.8617 28.0078H19.0461C18.6433 28.0078 18.1982 27.832 17.7107 27.4805C17.2337 27.1159 16.868 26.6797 16.6137 26.1719L13.911 20.9766C12.7981 18.8411 11.452 17.7734 9.87281 17.7734H5.99364V26.1719C5.99364 26.6797 5.84526 27.1159 5.54849 27.4805C5.26232 27.832 4.91256 28.0078 4.49921 28.0078H1.51033C1.09698 28.0078 0.741918 27.832 0.445151 27.4805C0.148384 27.1159 0 26.6797 0 26.1719V1.85547C0 1.34766 0.143084 0.911458 0.429253 0.546875C0.715421 0.182292 1.06518 0 1.47854 0H14.5946C17.0217 0 19.009 0.800781 20.5564 2.40234C22.1145 4.00391 22.8935 6.16536 22.8935 8.88672C22.8935 12.6758 20.8956 15.0521 16.8998 16.0156C17.5358 16.3021 18.124 16.7969 18.6645 17.5C19.2051 18.1901 19.8251 19.1992 20.5246 20.5273L23.4181 26.1719C23.5877 26.5365 23.6725 26.8685 23.6725 27.168ZM5.99364 12.2461H12.7663C13.858 12.2461 14.8172 11.9792 15.6439 11.4453C16.4812 10.9115 16.8998 10.0586 16.8998 8.88672C16.8998 7.71484 16.4812 6.86198 15.6439 6.32813C14.8172 5.79427 13.858 5.52734 12.7663 5.52734H5.99364V12.2461Z" fill="#3C4469"/>
<path d="M27.3132 25.5469C25.681 23.6458 24.8649 20.9115 24.8649 17.3438C24.8649 13.763 25.6863 11.0156 27.3291 9.10156C28.9719 7.17448 31.2507 6.21094 34.1653 6.21094C37.08 6.21094 39.3535 7.14844 40.9857 9.02344C42.6179 10.8854 43.434 13.5612 43.434 17.0508V18.1641C43.434 18.5156 43.3386 18.8086 43.1479 19.043C42.9677 19.2643 42.7345 19.375 42.4483 19.375H30.4769C30.5829 20.9766 30.9539 22.1419 31.5898 22.8711C32.2364 23.6003 33.2644 23.9648 34.6741 23.9648C36.0837 23.9648 37.0482 23.5742 37.5676 22.793C38.0869 22.0117 38.7281 21.6146 39.4913 21.6016H41.8601C42.1463 21.6016 42.3794 21.7188 42.5596 21.9531C42.7504 22.1745 42.8458 22.4609 42.8458 22.8125C42.8458 26.5495 39.947 28.4115 34.1494 28.3984C31.2242 28.3984 28.9454 27.4479 27.3132 25.5469ZM30.4452 15.2539H37.8378C37.7318 12.181 36.5024 10.6445 34.1494 10.6445C31.8071 10.6445 30.5723 12.181 30.4452 15.2539Z" fill="#3C4469"/>
<path d="M47.4722 26.6016C46.0731 25.4036 45.3736 23.7109 45.3736 21.5234C45.3736 19.3359 46.0731 17.6563 47.4722 16.4844C48.8818 15.3125 50.6942 14.7266 52.9094 14.7266H58.1717C58.1717 13.2031 57.912 12.1419 57.3927 11.543C56.8733 10.944 55.9618 10.6445 54.6582 10.6445C53.3651 10.6445 52.4536 11.0417 51.9237 11.8359C51.4043 12.6172 50.7631 13.0078 50 13.0078H47.6312C47.345 13.0078 47.1065 12.8971 46.9157 12.6758C46.7356 12.4414 46.6455 12.1549 46.6455 11.8164C46.6455 8.07943 49.5337 6.21094 55.31 6.21094C57.8325 6.21094 59.8569 6.90755 61.3831 8.30078C62.9094 9.68099 63.6725 11.8229 63.6725 14.7266V26.8164C63.6725 27.168 63.5824 27.4544 63.4022 27.6758C63.222 27.8971 62.9889 28.0078 62.7027 28.0078H59.6343C59.3482 28.0078 59.115 27.8971 58.9348 27.6758C58.7546 27.4414 58.6645 27.1549 58.6645 26.8164V26.2109C56.9899 27.6823 55.0556 28.4115 52.8617 28.3984C50.6783 28.3984 48.8818 27.7995 47.4722 26.6016ZM53.2909 19.1602C52.549 19.1602 51.9608 19.3815 51.5262 19.8242C51.1023 20.2669 50.8903 20.8398 50.8903 21.543C50.8903 22.2461 51.1129 22.8255 51.558 23.2813C52.0032 23.737 52.6338 23.9648 53.4499 23.9648C55.0821 23.9648 56.6561 23.3789 58.1717 22.207V19.1602H53.2909Z" fill="#3C4469"/>
<path d="M67.5994 26.8164V1.21094C67.5994 0.859375 67.6895 0.572917 67.8696 0.351563C68.0604 0.117188 68.2936 0 68.5692 0H72.1304C72.4059 0 72.6338 0.117188 72.814 0.351563C73.0048 0.572917 73.1002 0.859375 73.1002 1.21094V26.8164C73.1002 27.1549 73.0048 27.4414 72.814 27.6758C72.6338 27.8971 72.4059 28.0078 72.1304 28.0078H68.5692C68.2936 28.0078 68.0604 27.8971 67.8696 27.6758C67.6895 27.4414 67.5994 27.1549 67.5994 26.8164Z" fill="#3C4469"/>
<path d="M88.744 26.1328V1.81641C88.744 1.30859 88.8924 0.878906 89.1892 0.527344C89.486 0.175781 89.841 0 90.2544 0H108.585C108.998 0 109.348 0.182292 109.634 0.546875C109.931 0.911458 110.079 1.34766 110.079 1.85547V3.69141C110.079 4.19922 109.931 4.63542 109.634 5C109.348 5.35156 108.998 5.52734 108.585 5.52734H94.7377V11.2109H106.661C107.075 11.2109 107.424 11.3932 107.711 11.7578C108.007 12.1094 108.156 12.5391 108.156 13.0469V14.8828C108.156 15.3906 108.007 15.8268 107.711 16.1914C107.424 16.543 107.075 16.7188 106.661 16.7188H94.7377V22.4805H108.553C108.956 22.4805 109.3 22.6563 109.587 23.0078C109.873 23.3594 110.016 23.7891 110.016 24.2969V26.1719C110.016 26.6797 109.868 27.1159 109.571 27.4805C109.274 27.832 108.919 28.0078 108.506 28.0078H90.2544C89.841 28.0078 89.486 27.832 89.1892 27.4805C88.8924 27.1159 88.744 26.6667 88.744 26.1328Z" fill="#3C4469"/>
<path d="M111.701 12.5195C111.701 8.3138 114.462 6.21094 119.984 6.21094C125.792 6.21094 128.696 8.07943 128.696 11.8164C128.696 12.1549 128.606 12.4414 128.426 12.6758C128.246 12.8971 128.013 13.0078 127.727 13.0078H125.358C124.595 13.0078 123.953 12.6172 123.434 11.8359C122.915 11.0417 121.892 10.6445 120.366 10.6445C118.267 10.6445 117.218 11.2695 117.218 12.5195C117.218 13.1055 117.626 13.5938 118.442 13.9844C119.269 14.375 120.27 14.7201 121.447 15.0195C122.634 15.306 123.816 15.6771 124.992 16.1328C126.169 16.5885 127.165 17.3177 127.981 18.3203C128.808 19.3099 129.221 20.5664 129.221 22.0898C129.221 26.2956 126.306 28.3984 120.477 28.3984C114.648 28.3984 111.733 26.5365 111.733 22.8125C111.733 22.4609 111.823 22.1745 112.003 21.9531C112.194 21.7188 112.432 21.6016 112.719 21.6016H115.087C115.851 21.6016 116.492 21.9987 117.011 22.793C117.53 23.5742 118.553 23.9648 120.079 23.9648C122.507 23.9648 123.72 23.3398 123.72 22.0898C123.72 21.5039 123.307 21.0156 122.48 20.625C121.664 20.2344 120.662 19.8893 119.475 19.5898C118.288 19.2773 117.107 18.8997 115.93 18.457C114.764 18.0013 113.768 17.2721 112.941 16.2695C112.114 15.2669 111.701 14.0169 111.701 12.5195Z" fill="#3C4469"/>
<path d="M140.477 23.7695L142.655 23.5352H143.243C143.529 23.5352 143.763 23.6458 143.943 23.8672C144.134 24.0885 144.229 24.375 144.229 24.7266V26.8164C144.229 27.1029 144.134 27.3633 143.943 27.5977C143.763 27.819 143.529 27.9557 143.243 28.0078C142.162 28.2682 140.753 28.3984 139.014 28.3984C134.457 28.3984 132.178 25.4688 132.178 19.6094V1.21094C132.178 0.859375 132.268 0.572917 132.448 0.351563C132.639 0.117188 132.872 0 133.148 0H136.709C136.985 0 137.213 0.117188 137.393 0.351563C137.583 0.572917 137.679 0.859375 137.679 1.21094V7.73438H142.114C142.39 7.73438 142.618 7.84505 142.798 8.06641C142.989 8.28776 143.084 8.57422 143.084 8.92578V11.25C143.084 11.6016 142.989 11.888 142.798 12.1094C142.618 12.3307 142.39 12.4414 142.114 12.4414H137.679V19.6094C137.679 20.9375 137.933 21.9661 138.442 22.6953C138.951 23.4115 139.629 23.7695 140.477 23.7695Z" fill="#3C4469"/>
<path d="M147.79 26.6016C146.391 25.4036 145.692 23.7109 145.692 21.5234C145.692 19.3359 146.391 17.6563 147.79 16.4844C149.2 15.3125 151.012 14.7266 153.227 14.7266H158.49C158.49 13.2031 158.23 12.1419 157.711 11.543C157.191 10.944 156.28 10.6445 154.976 10.6445C153.683 10.6445 152.772 11.0417 152.242 11.8359C151.722 12.6172 151.081 13.0078 150.318 13.0078H147.949C147.663 13.0078 147.424 12.8971 147.234 12.6758C147.054 12.4414 146.963 12.1549 146.963 11.8164C146.963 8.07943 149.852 6.21094 155.628 6.21094C158.151 6.21094 160.175 6.90755 161.701 8.30078C163.227 9.68099 163.99 11.8229 163.99 14.7266V26.8164C163.99 27.168 163.9 27.4544 163.72 27.6758C163.54 27.8971 163.307 28.0078 163.021 28.0078H159.952C159.666 28.0078 159.433 27.8971 159.253 27.6758C159.073 27.4414 158.983 27.1549 158.983 26.8164V26.2109C157.308 27.6823 155.374 28.4115 153.18 28.3984C150.996 28.3984 149.2 27.7995 147.79 26.6016ZM153.609 19.1602C152.867 19.1602 152.279 19.3815 151.844 19.8242C151.42 20.2669 151.208 20.8398 151.208 21.543C151.208 22.2461 151.431 22.8255 151.876 23.2813C152.321 23.737 152.952 23.9648 153.768 23.9648C155.4 23.9648 156.974 23.3789 158.49 22.207V19.1602H153.609Z" fill="#3C4469"/>
<path d="M176.216 23.7695L178.394 23.5352H178.983C179.269 23.5352 179.502 23.6458 179.682 23.8672C179.873 24.0885 179.968 24.375 179.968 24.7266V26.8164C179.968 27.1029 179.873 27.3633 179.682 27.5977C179.502 27.819 179.269 27.9557 178.983 28.0078C177.901 28.2682 176.492 28.3984 174.754 28.3984C170.196 28.3984 167.917 25.4688 167.917 19.6094V1.21094C167.917 0.859375 168.007 0.572917 168.188 0.351563C168.378 0.117188 168.612 0 168.887 0H172.448C172.724 0 172.952 0.117188 173.132 0.351563C173.323 0.572917 173.418 0.859375 173.418 1.21094V7.73438H177.854C178.129 7.73438 178.357 7.84505 178.537 8.06641C178.728 8.28776 178.824 8.57422 178.824 8.92578V11.25C178.824 11.6016 178.728 11.888 178.537 12.1094C178.357 12.3307 178.129 12.4414 177.854 12.4414H173.418V19.6094C173.418 20.9375 173.672 21.9661 174.181 22.6953C174.69 23.4115 175.368 23.7695 176.216 23.7695Z" fill="#3C4469"/>
<path d="M183.879 25.5469C182.247 23.6458 181.431 20.9115 181.431 17.3438C181.431 13.763 182.252 11.0156 183.895 9.10156C185.538 7.17448 187.817 6.21094 190.731 6.21094C193.646 6.21094 195.919 7.14844 197.552 9.02344C199.184 10.8854 200 13.5612 200 17.0508V18.1641C200 18.5156 199.905 18.8086 199.714 19.043C199.534 19.2643 199.3 19.375 199.014 19.375H187.043C187.149 20.9766 187.52 22.1419 188.156 22.8711C188.802 23.6003 189.83 23.9648 191.24 23.9648C192.65 23.9648 193.614 23.5742 194.134 22.793C194.653 22.0117 195.294 21.6146 196.057 21.6016H198.426C198.712 21.6016 198.945 21.7188 199.126 21.9531C199.316 22.1745 199.412 22.4609 199.412 22.8125C199.412 26.5495 196.513 28.4115 190.715 28.3984C187.79 28.3984 185.511 27.4479 183.879 25.5469ZM187.011 15.2539H194.404C194.298 12.181 193.068 10.6445 190.715 10.6445C188.373 10.6445 187.138 12.181 187.011 15.2539Z" fill="#3C4469"/>
</svg>
