<svg width="25" height="18" viewBox="0 0 25 18" fill="none" xmlns="http://www.w3.org/2000/svg">
<path d="M23.7273 11.4545H22.9091V9C22.9077 8.49359 22.7496 8.00002 22.4567 7.58695C22.1637 7.17388 21.7502 6.86153 21.2727 6.69273V4.09091C21.2727 3.00593 20.8417 1.96539 20.0745 1.1982C19.3073 0.431005 18.2668 0 17.1818 0H7.36364C6.27866 0 5.23812 0.431005 4.47093 1.1982C3.70373 1.96539 3.27273 3.00593 3.27273 4.09091V6.69273C2.79528 6.86153 2.38173 7.17388 2.08877 7.58695C1.79581 8.00002 1.63779 8.49359 1.63636 9V11.4545H0.818182C0.601187 11.4545 0.393079 11.5407 0.23964 11.6942C0.086201 11.8476 0 12.0557 0 12.2727V14.7273C0 14.9443 0.086201 15.1524 0.23964 15.3058C0.393079 15.4593 0.601187 15.5455 0.818182 15.5455H1.63636V17.1818C1.63636 17.3988 1.72256 17.6069 1.876 17.7604C2.02944 17.9138 2.23755 18 2.45455 18H5.72727C5.94427 18 6.15238 17.9138 6.30581 17.7604C6.45925 17.6069 6.54545 17.3988 6.54545 17.1818V15.5455H18V17.1818C18 17.3988 18.0862 17.6069 18.2396 17.7604C18.3931 17.9138 18.6012 18 18.8182 18H22.0909C22.3079 18 22.516 17.9138 22.6695 17.7604C22.8229 17.6069 22.9091 17.3988 22.9091 17.1818V15.5455H23.7273C23.9443 15.5455 24.1524 15.4593 24.3058 15.3058C24.4593 15.1524 24.5455 14.9443 24.5455 14.7273V12.2727C24.5455 12.0557 24.4593 11.8476 24.3058 11.6942C24.1524 11.5407 23.9443 11.4545 23.7273 11.4545ZM7.36364 1.63636H17.1818C17.8328 1.63636 18.4571 1.89497 18.9174 2.35528C19.3778 2.8156 19.6364 3.43992 19.6364 4.09091V6.54545H16.3636V4.90909C16.3636 4.6921 16.2774 4.48399 16.124 4.33055C15.9706 4.17711 15.7625 4.09091 15.5455 4.09091H9C8.78301 4.09091 8.5749 4.17711 8.42146 4.33055C8.26802 4.48399 8.18182 4.6921 8.18182 4.90909V6.54545H4.90909V4.09091C4.90909 3.43992 5.16769 2.8156 5.62801 2.35528C6.08833 1.89497 6.71265 1.63636 7.36364 1.63636V1.63636ZM9.81818 6.54545V5.72727H14.7273V6.54545H9.81818ZM3.27273 9C3.27273 8.783 3.35893 8.5749 3.51237 8.42146C3.66581 8.26802 3.87391 8.18182 4.09091 8.18182H20.4545C20.6715 8.18182 20.8797 8.26802 21.0331 8.42146C21.1865 8.5749 21.2727 8.783 21.2727 9V11.4545H3.27273V9ZM4.90909 16.3636H3.27273V15.5455H4.90909V16.3636ZM21.2727 16.3636H19.6364V15.5455H21.2727V16.3636ZM22.9091 13.9091H1.63636V13.0909H22.9091V13.9091Z" fill="#969BA0"/>
</svg>
