<svg width="20" height="18" viewBox="0 0 20 18" fill="none" xmlns="http://www.w3.org/2000/svg">
<path d="M18.9072 8.99659H3.60136V3.96383C3.59821 3.63959 3.68378 3.32066 3.84882 3.04155C4.01386 2.76244 4.25208 2.53378 4.53772 2.38031C4.85357 2.20915 5.2135 2.13664 5.57099 2.17216C5.38903 2.72321 5.36318 3.31389 5.4963 3.87874C5.62943 4.44359 5.91632 4.96055 6.32521 5.37236L7.2801 6.32722C7.36369 6.41084 7.46292 6.47718 7.57215 6.52243C7.68137 6.56769 7.79844 6.59099 7.91667 6.59099C8.0349 6.59099 8.15197 6.56769 8.2612 6.52243C8.37042 6.47718 8.46966 6.41084 8.55324 6.32722L11.7361 3.14437C11.8197 3.06079 11.886 2.96155 11.9313 2.85233C11.9766 2.7431 11.9999 2.62603 11.9999 2.5078C11.9999 2.38957 11.9766 2.2725 11.9313 2.16328C11.886 2.05405 11.8197 1.95481 11.7361 1.87123L10.7812 0.916378C10.2498 0.387314 9.54681 0.0655048 8.79904 0.00895995C8.05128 -0.0475849 7.30791 0.164855 6.70294 0.607984C6.15748 0.394954 5.56824 0.318409 4.98646 0.385005C4.40468 0.451601 3.84798 0.659321 3.36477 0.990101C2.88156 1.32088 2.48648 1.7647 2.21389 2.28297C1.9413 2.80123 1.79945 3.37825 1.80068 3.96383V8.99659H0.900341C0.661556 8.99659 0.43255 9.09145 0.263704 9.26029C0.0948571 9.42914 0 9.65814 0 9.89693C0 10.1357 0.0948571 10.3647 0.263704 10.5336C0.43255 10.7024 0.661556 10.7973 0.900341 10.7973H1.80068V13.4983C1.8024 14.055 1.9764 14.5976 2.29882 15.0515C2.62123 15.5054 3.07623 15.8484 3.60136 16.0334V17.0997C3.60136 17.3384 3.69622 17.5675 3.86507 17.7363C4.03392 17.9051 4.26292 18 4.50171 18C4.74049 18 4.9695 17.9051 5.13834 17.7363C5.30719 17.5675 5.40205 17.3384 5.40205 17.0997V16.1993H14.4055V17.0997C14.4055 17.3384 14.5003 17.5675 14.6692 17.7363C14.838 17.9051 15.067 18 15.3058 18C15.5446 18 15.7736 17.9051 15.9424 17.7363C16.1113 17.5675 16.2061 17.3384 16.2061 17.0997V16.0334C16.7313 15.8484 17.1863 15.5055 17.5087 15.0515C17.8311 14.5976 18.0051 14.0551 18.0068 13.4983V10.7973H18.9072C19.1459 10.7973 19.375 10.7024 19.5438 10.5336C19.7126 10.3647 19.8075 10.1357 19.8075 9.89693C19.8075 9.65814 19.7126 9.42914 19.5438 9.26029C19.375 9.09145 19.1459 8.99659 18.9072 8.99659ZM7.59838 2.18951C7.85186 1.93671 8.19525 1.79474 8.55324 1.79474C8.91124 1.79474 9.25462 1.93671 9.5081 2.18951L9.82638 2.5078L7.9167 4.41751L7.59841 4.09923C7.34547 3.84583 7.2034 3.50242 7.2034 3.14438C7.20339 2.78634 7.34545 2.44292 7.59838 2.18951V2.18951ZM16.2061 13.4983C16.206 13.737 16.1111 13.9659 15.9423 14.1348C15.7734 14.3036 15.5445 14.3985 15.3058 14.3986H4.50171C4.26297 14.3985 4.03406 14.3036 3.86524 14.1348C3.69643 13.9659 3.60152 13.737 3.60136 13.4983V10.7973H16.2061V13.4983Z" fill="#969BA0"/>
</svg>
