<svg width="22" height="18" viewBox="0 0 22 18" fill="none" xmlns="http://www.w3.org/2000/svg">
<path d="M7.19438 0L2.87775 0.862763V1.45293V2.17237H0V18H11.511H21.5831V2.17237H18.7054V0.862763L14.3888 0L10.7916 0.719438L7.19438 0ZM7.19438 1.46698L10.0721 2.04028V13.526L7.19438 12.9499L4.31663 13.526V2.04309L7.19438 1.46698ZM14.3888 1.46698L17.2665 2.04028V13.526L14.3888 12.9499L11.511 13.526V2.04309L14.3888 1.46698ZM1.43888 3.61124H2.87775V15.2796L7.19438 14.4169L10.0721 14.993V15.2796V16.5611H1.43888V3.61124ZM18.7054 3.61124H20.1443V16.5611H11.511V15.2796V14.993L14.3888 14.4169L18.7054 15.2796V3.61124Z" fill="#969BA0"/>
</svg>
